# xmcd
#
# Track frame offsets:
#	150
#	17432
#	34470
#	52792
#	72597
#	88290
#	112695
#	135177
#	150040
#	166680
#	190685
#	211712
#
# Disc length: 3166 seconds
#
# Revision: 0
# Processed by: cddbd v1.5.1PL0 Copyright (c) Steve Scherf et al.
# Submitted via: dBpowerAMP V4.0
#
DISCID=830c5c0c
DTITLE=Blue House - Live at McKenna's
DYEAR=2004
DGENRE=Blues
TTITLE0=Caldonia
TTITLE1=Who's Been Talking?
TTITLE2=300 Pounds of Heavenly Joy
TTITLE3=Come to Papa
TTITLE4=Right Place Wrong Time
TTITLE5=Whole Lotta Love
TTITLE6=I Just Wanna Make Love To You
TTITLE7=Fire
TTITLE8=How Big?
TTITLE9=All Along The Watchtower
TTITLE10=The Letter
TTITLE11=Ain't No Sunshine
EXTD=Live CD by an Omaha blues band. My name is Todd Keller and I purchased this cd from the band.\n
EXTT0=
EXTT1=
EXTT2=
EXTT3=
EXTT4=
EXTT5=
EXTT6=
EXTT7=
EXTT8=
EXTT9=
EXTT10=
EXTT11=
PLAYORDER=
